<svg version="1" xmlns="http://www.w3.org/2000/svg" width="1333.333" height="1333.333" viewBox="0 0 1000.000000 1000.000000"><path d="M498.4 53.3c-.3.8-22.7 70.2-49.8 154.3l-49.3 152.9-163.2.3c-89.7.1-163.1.5-163.1 1 0 .4 23.8 17.8 52.8 38.8 171.8 124.1 211.1 152.7 210.8 153.3-.8 1.3-100.6 306.9-100.6 308 0 .6.4 1.1.9 1.1.8 0 83.7-60.2 231.6-168.3 17.1-12.5 31.2-22.7 31.5-22.7.3 0 14.5 10.2 31.5 22.7C679.4 802.8 762.3 863 763.1 863c.5 0 .9-.5.9-1.1 0-1.1-99.8-306.7-100.6-308-.2-.4 34.4-25.8 76.9-56.5 42.4-30.7 95.2-68.9 117.2-84.8 22-15.9 46.6-33.7 54.7-39.5 8.1-5.8 14.7-10.9 14.8-11.3 0-.5-73.4-.9-163.1-1l-163.2-.3-49.6-153.9c-27.3-84.7-50.2-154.1-50.9-154.4-.7-.2-1.5.3-1.8 1.1z"/></svg>